<svg xmlns="http://www.w3.org/2000/svg" width="95" height="39" viewBox="0 0 95 39" fill="none"><path d="M12.8064 4.59863C5.73361 4.59863 0 10.2925 0 17.3161C0 24.3401 5.73361 30.0339 12.8064 30.0339C19.8797 30.0339 25.6133 24.3401 25.6133 17.3161C25.6133 10.2925 19.8797 4.59863 12.8064 4.59863ZM12.8064 22.8755C9.71492 22.8755 7.208 20.3864 7.208 17.3161C7.208 14.2462 9.71454 11.7567 12.8064 11.7567C15.8983 11.7567 18.4049 14.2458 18.4049 17.3161C18.4049 20.3864 15.8983 22.8755 12.8064 22.8755Z" fill="#00C4B3"></path><path d="M39.1899 4.59863C32.1171 4.59863 26.3831 10.2925 26.3831 17.3161C26.3831 24.3401 32.1171 30.0339 39.1899 30.0339C46.2631 30.0339 51.9967 24.3401 51.9967 17.3161C51.9967 10.2925 46.2631 4.59863 39.1899 4.59863ZM39.1899 22.8755C36.098 22.8755 33.5918 20.3864 33.5918 17.3161C33.5918 14.2462 36.098 11.7567 39.1899 11.7567C42.2818 11.7567 44.7879 14.2458 44.7879 17.3161C44.7883 20.3864 42.2818 22.8755 39.1899 22.8755Z" fill="#00C4B3"></path><path d="M66.534 19.0999C66.1588 19.1786 65.7703 19.2206 65.372 19.2206C62.2801 19.2206 59.7736 16.7315 59.7736 13.6612C59.7736 10.5905 62.2801 8.10176 65.372 8.10176C66.676 8.10176 67.8748 8.54552 68.8263 9.28839C70.1617 7.25363 71.9886 5.56607 74.1388 4.39193C71.8477 2.2538 68.7642 0.943359 65.372 0.943359C58.2988 0.943359 52.5652 6.63722 52.5652 13.6612C52.5652 20.6848 58.2988 26.3787 65.372 26.3787C66.6866 26.3787 67.9547 26.1818 69.1481 25.8168C67.7612 23.8718 66.8369 21.5795 66.534 19.0999Z" fill="#1F77DF"></path><path d="M82.2994 4.49951C75.2849 4.49951 69.5989 10.1851 69.5989 17.1985C69.5989 24.2123 75.2849 29.8979 82.2994 29.8979C84.2504 29.8979 86.0986 29.4567 87.7504 28.6703V29.9006H87.851H89.2043H94.9999V17.1985C94.9999 10.1851 89.3139 4.49951 82.2994 4.49951ZM82.2994 22.7499C79.2332 22.7499 76.7474 20.2644 76.7474 17.1985C76.7474 14.133 79.2332 11.6471 82.2994 11.6471C85.3656 11.6471 87.851 14.1327 87.851 17.1985C87.851 20.2644 85.3656 22.7499 82.2994 22.7499Z" fill="#00C4B3"></path><path d="M68.7056 33.71C68.7056 33.5267 68.8521 33.3813 69.0414 33.3813C69.2262 33.3813 69.3723 33.5267 69.3723 33.71V36.8765C69.3723 37.0597 69.2258 37.2051 69.0414 37.2051C68.8521 37.2051 68.7056 37.0597 68.7056 36.8765V33.71Z" fill="#00C4B3"></path><path d="M70.7174 36.3921V34.895H70.6091C70.4512 34.895 70.3267 34.7711 70.3267 34.6148C70.3267 34.4588 70.4512 34.335 70.6091 34.335H70.7174V33.8503C70.7174 33.6724 70.8639 33.5273 71.0476 33.5273C71.227 33.5273 71.3732 33.6724 71.3732 33.8503V34.335H71.8885C72.046 34.335 72.1755 34.4588 72.1755 34.6148C72.1755 34.7711 72.046 34.895 71.8885 34.895H71.3732V36.2898C71.3732 36.5428 71.5034 36.645 71.7257 36.645C71.8018 36.645 71.8669 36.6287 71.8885 36.6287C72.035 36.6287 72.1649 36.7472 72.1649 36.8979C72.1649 37.0164 72.0839 37.1134 71.9915 37.1512C71.8506 37.1997 71.7151 37.2262 71.5413 37.2262C71.0589 37.2266 70.7174 37.0164 70.7174 36.3921Z" fill="#00C4B3"></path><path d="M73.0379 34.6311C73.2871 34.5554 73.4177 34.3888 73.4063 34.1461C73.2496 34.1082 73.0977 33.9791 73.0977 33.7852V33.7417C73.0977 33.5372 73.2443 33.3809 73.4662 33.3809C73.7047 33.3809 73.8569 33.5641 73.8569 33.8549V33.909C73.8569 34.2752 73.7592 34.5281 73.5907 34.6955C73.4446 34.8409 73.2329 34.9272 73.0811 34.9272C72.9671 34.9272 72.9126 34.8624 72.9126 34.7761C72.9134 34.7011 72.9679 34.6527 73.0379 34.6311Z" fill="#00C4B3"></path><path d="M74.649 36.8926C74.5786 36.8551 74.5244 36.7741 74.5244 36.6666C74.5244 36.5212 74.6384 36.4027 74.7902 36.4027C74.8447 36.4027 74.8932 36.4186 74.9311 36.4402C75.2078 36.6234 75.4956 36.7147 75.7553 36.7147C76.0378 36.7147 76.2002 36.5962 76.2002 36.4076V36.3974C76.2002 36.1766 75.8966 36.1009 75.5603 35.9987C75.137 35.8802 74.6653 35.7079 74.6653 35.1642V35.1532C74.6653 34.6148 75.1155 34.2861 75.6849 34.2861C75.9886 34.2861 76.3085 34.3721 76.5857 34.5179C76.6773 34.5663 76.7428 34.6526 76.7428 34.7655C76.7428 34.9162 76.6232 35.0294 76.4717 35.0294C76.4172 35.0294 76.3842 35.0188 76.3415 34.9972C76.1082 34.8787 75.8689 34.8033 75.6683 34.8033C75.4134 34.8033 75.2673 34.9219 75.2673 35.0835V35.0941C75.2673 35.3043 75.5763 35.3906 75.9125 35.4978C76.3301 35.6272 76.8019 35.8158 76.8019 36.3273V36.3383C76.8019 36.9358 76.3354 37.2323 75.7391 37.2323C75.376 37.2319 74.9799 37.1187 74.649 36.8926Z" fill="#00C4B3"></path><path d="M79.5515 35.3038V35.2928C79.5515 34.2319 80.3762 33.3433 81.542 33.3433C82.7078 33.3433 83.5218 34.2209 83.5218 35.2822V35.2928C83.5218 36.3541 82.6976 37.2424 81.5314 37.2424C80.3656 37.2424 79.5515 36.3647 79.5515 35.3038ZM82.8221 35.3038V35.2928C82.8221 34.5602 82.2849 33.9521 81.5314 33.9521C80.7779 33.9521 80.2516 34.55 80.2516 35.2826V35.2932C80.2516 36.0259 80.7885 36.629 81.5424 36.629C82.2958 36.6286 82.8221 36.0361 82.8221 35.3038Z" fill="#00C4B3"></path><path d="M84.5234 33.5427C84.5234 33.3647 84.6643 33.2197 84.8491 33.2197C85.0334 33.2197 85.18 33.3651 85.18 33.5427V35.6433L86.4109 34.4423C86.4976 34.356 86.5794 34.3026 86.6934 34.3026C86.8672 34.3026 86.9808 34.4423 86.9808 34.5987C86.9808 34.7062 86.9262 34.7873 86.8338 34.8732L86.0747 35.568L86.9425 36.6937C87.0023 36.7743 87.0292 36.8338 87.0292 36.9091C87.0292 37.0867 86.8884 37.2056 86.7203 37.2056C86.5904 37.2056 86.5139 37.1628 86.4325 37.0602L85.6139 35.9781L85.18 36.3874V36.8826C85.18 37.0655 85.0334 37.2056 84.8491 37.2056C84.6703 37.2056 84.5234 37.0655 84.5234 36.8826V33.5427Z" fill="#1F77DF"></path><path d="M91.3729 37.9751C91.2748 37.9429 91.1665 37.8622 91.1665 37.7059C91.1665 37.5446 91.2911 37.4367 91.4323 37.4367C91.4865 37.4367 91.519 37.4473 91.5516 37.4583C91.6269 37.4798 91.6871 37.4961 91.7791 37.4961C91.9741 37.4961 92.0775 37.4155 92.1858 37.1943L92.2078 37.1353L91.1446 34.7764C91.1226 34.7276 91.1067 34.6632 91.1067 34.62C91.1067 34.4371 91.2475 34.3027 91.4323 34.3027C91.6008 34.3027 91.6924 34.3993 91.7523 34.5504L92.522 36.4409L93.238 34.5504C93.2925 34.4156 93.3849 34.3027 93.5527 34.3027C93.7261 34.3027 93.8677 34.4371 93.8677 34.6094C93.8677 34.6636 93.8514 34.7336 93.8404 34.7658L92.7939 37.2595C92.5497 37.8414 92.2892 38.0565 91.8284 38.0565C91.644 38.0561 91.5084 38.0296 91.3729 37.9751Z" fill="#00C4B3"></path><path d="M94.6206 36.4077C94.8375 36.4077 94.9999 36.5694 94.9999 36.7795V36.8333C94.9999 37.0434 94.8371 37.2047 94.6206 37.2047C94.3983 37.2047 94.2351 37.0434 94.2351 36.8333V36.7795C94.2355 36.5694 94.3983 36.4077 94.6206 36.4077Z" fill="#00C4B3"></path><path d="M90.0516 34.5497C90.0516 34.4289 90.1432 34.3263 90.2693 34.3263C90.3953 34.3263 90.4927 34.4293 90.4927 34.5497V37.1225C90.4927 37.2486 90.3953 37.3459 90.2749 37.3459C90.1489 37.3459 90.0516 37.2482 90.0516 37.1225V36.7212C89.8107 37.0767 89.4613 37.3804 88.9168 37.3804C88.2065 37.3804 87.5015 36.8185 87.5015 35.8443V35.8329C87.5015 34.8644 88.2065 34.2915 88.9168 34.2915C89.4673 34.2915 89.8221 34.5895 90.0516 34.9215V34.5497ZM87.9535 35.8272V35.8393C87.9535 36.5383 88.4412 36.9855 88.9967 36.9855C89.5472 36.9855 90.0686 36.5213 90.0686 35.8393V35.8272C90.0686 35.1453 89.5472 34.6872 88.9967 34.6872C88.4238 34.6872 87.9535 35.1109 87.9535 35.8272Z" fill="#00C4B3"></path><path d="M88.917 37.4389C88.2025 37.4389 87.4434 36.88 87.4434 35.8445C87.4434 34.7942 88.2025 34.2334 88.917 34.2334C89.3464 34.2334 89.708 34.4064 89.9934 34.7487V34.5499C89.9934 34.392 90.1146 34.2682 90.2691 34.2682C90.4243 34.2682 90.5508 34.3947 90.5508 34.5499V37.1227C90.5508 37.2806 90.4296 37.4044 90.2751 37.4044C90.1173 37.4044 89.9934 37.2806 89.9934 37.1227V36.8986C89.7011 37.2617 89.3475 37.4389 88.917 37.4389ZM88.917 34.35C88.2589 34.35 87.56 34.8699 87.56 35.8331C87.56 36.8043 88.2593 37.3223 88.917 37.3223C89.3592 37.3223 89.7148 37.1152 90.0037 36.6888L90.1101 36.5317V37.1227C90.1101 37.217 90.1812 37.2878 90.2751 37.2878C90.3645 37.2878 90.4345 37.2151 90.4345 37.1227V34.5499C90.4345 34.4587 90.3603 34.3849 90.2695 34.3849C90.1801 34.3849 90.1101 34.4575 90.1101 34.5499V35.1088L90.004 34.9551C89.7265 34.5533 89.3607 34.35 88.917 34.35ZM88.9973 37.0436C88.3695 37.0436 87.8958 36.526 87.8958 35.8392V35.8271C87.8958 35.1213 88.3487 34.6287 88.9973 34.6287C89.5527 34.6287 90.1275 35.077 90.1275 35.8271V35.8392C90.1271 36.4185 89.6951 37.0436 88.9973 37.0436ZM88.9973 34.7453C88.4172 34.7453 88.0124 35.1902 88.0124 35.8271V35.8392C88.0124 36.4594 88.4358 36.927 88.9973 36.927C89.4846 36.927 90.0109 36.5112 90.0109 35.8392V35.8271C90.0109 35.1501 89.4952 34.7453 88.9973 34.7453Z" fill="#00C4B3"></path></svg>